<?xml version="1.0" standalone="no"?>
<!DOCTYPE svg PUBLIC "-//W3C//DTD SVG 20010904//EN"
 "http://www.w3.org/TR/2001/REC-SVG-20010904/DTD/svg10.dtd">
<svg version="1.0" xmlns="http://www.w3.org/2000/svg"
 width="1200.000000pt" height="1200.000000pt" viewBox="0 0 1200.000000 1200.000000"
 preserveAspectRatio="xMidYMid meet">

<g transform="translate(0.000000,1200.000000) scale(0.100000,-0.100000)"
fill="#000000" stroke="none">
<path d="M1750 6000 l0 -1930 805 0 805 0 0 1930 0 1930 -805 0 -805 0 0
-1930z m1112 1695 c57 -42 57 -48 54 -770 -2 -363 -8 -1104 -14 -1647 -12
-1096 -7 -1019 -79 -1053 -31 -15 -52 -17 -132 -10 -53 4 -163 8 -246 9 -132
1 -154 4 -185 22 -19 11 -40 31 -45 45 -8 16 -8 365 -2 1129 5 608 10 1353 11
1657 l2 552 24 27 c14 15 43 35 65 45 36 17 63 19 280 17 222 -3 242 -5 267
-23z"/>
<path d="M7077 6540 c-144 -37 -230 -157 -228 -321 1 -93 9 -116 62 -174 51
-55 118 -94 231 -134 164 -57 198 -83 198 -148 0 -83 -75 -130 -177 -112 -54
10 -99 50 -108 96 -17 84 -25 90 -128 92 -100 2 -112 -18 -83 -140 28 -123
105 -206 220 -241 57 -17 85 -20 166 -15 157 8 231 54 289 177 22 47 26 69 26
150 0 78 -4 102 -22 136 -32 60 -91 108 -169 137 -38 15 -107 41 -154 58 -94
36 -150 81 -150 122 0 31 38 88 70 104 34 17 102 16 149 -3 30 -12 45 -26 61
-58 11 -23 20 -49 20 -57 0 -30 24 -39 106 -39 101 0 109 7 101 89 -10 115
-95 229 -198 267 -52 19 -226 28 -282 14z"/>
<path d="M9080 6537 l-35 -12 0 -375 c0 -371 0 -376 -23 -422 -28 -57 -68 -78
-150 -78 -71 0 -101 19 -128 82 -16 38 -18 83 -22 408 -2 201 -8 373 -13 382
-8 15 -24 18 -89 18 -122 0 -114 29 -107 -385 5 -228 12 -376 21 -426 35 -190
129 -276 316 -287 235 -13 371 93 399 313 11 83 9 760 -2 772 -7 7 -84 22
-112 22 -11 0 -36 -6 -55 -12z"/>
<path d="M4720 6531 c-13 -9 -16 -83 -20 -528 -6 -606 -16 -553 111 -553 43 0
80 3 82 8 10 16 17 1047 8 1061 -11 17 -159 27 -181 12z"/>
<path d="M5127 6528 c-15 -12 -18 -61 -23 -535 l-7 -523 27 -10 c15 -5 58 -10
96 -10 56 0 71 3 78 18 5 9 10 150 11 312 2 162 4 296 5 297 1 1 37 -60 81
-135 43 -75 97 -166 120 -202 23 -36 68 -110 100 -165 31 -55 65 -106 73 -112
9 -8 45 -13 88 -13 45 0 75 5 82 13 16 19 23 1032 7 1053 -8 12 -32 18 -86 22
-116 7 -109 27 -109 -329 0 -164 -4 -299 -8 -299 -4 0 -23 26 -42 58 -18 31
-57 95 -85 142 -29 47 -73 123 -100 170 -26 47 -67 114 -90 150 -23 36 -44 72
-47 81 -11 28 -138 41 -171 17z"/>
<path d="M6031 6527 c-14 -14 -15 -161 -1 -188 10 -17 22 -19 122 -19 l110 0
-5 -417 c-3 -258 -2 -424 4 -435 8 -15 23 -18 87 -18 47 0 85 5 95 13 14 11
17 57 21 427 3 228 6 418 6 423 0 4 45 7 99 7 75 0 103 4 114 15 22 21 22 169
0 190 -13 13 -61 15 -327 15 -222 -1 -316 -4 -325 -13z"/>
<path d="M7712 6532 c-9 -6 -12 -35 -10 -108 l3 -99 113 -3 c79 -2 112 -6 113
-15 1 -7 0 -196 0 -421 -1 -296 1 -412 10 -422 17 -21 162 -19 183 2 14 14 16
67 16 435 l0 419 103 0 c67 0 107 4 115 12 7 7 12 44 12 98 0 54 -5 91 -12 98
-14 14 -624 17 -646 4z"/>
<path d="M9478 6533 c-35 -9 -38 -56 -38 -552 0 -432 2 -489 16 -510 l16 -23
222 4 c205 3 225 5 271 26 106 49 175 151 194 286 14 99 14 371 0 473 -22 168
-100 255 -257 288 -69 14 -378 20 -424 8z m345 -203 c44 0 54 -4 82 -34 45
-48 59 -143 52 -348 -7 -177 -16 -217 -58 -253 -30 -25 -35 -26 -143 -23
l-111 3 1 205 c0 113 2 263 2 334 l2 129 61 -7 c34 -3 84 -6 112 -6z"/>
</g>
</svg>
